<svg width="12" height="12" viewBox="0 0 12 12" fill="none" xmlns="http://www.w3.org/2000/svg">
<path d="M7.17488 1H4.82488C4.30488 1 3.87988 1.42 3.87988 1.94V2.41C3.87988 2.93 4.29988 3.35 4.81988 3.35H7.17488C7.69488 3.35 8.11488 2.93 8.11488 2.41V1.94C8.11988 1.42 7.69488 1 7.17488 1Z" fill="#0A1E3C"/>
<path d="M8.61953 2.40975C8.61953 3.20475 7.96953 3.85475 7.17453 3.85475H4.82453C4.02953 3.85475 3.37953 3.20475 3.37953 2.40975C3.37953 2.12975 3.07953 1.95475 2.82953 2.08475C2.12453 2.45975 1.64453 3.20475 1.64453 4.05975V8.76475C1.64453 9.99475 2.64953 10.9997 3.87953 10.9997H8.11953C9.34953 10.9997 10.3545 9.99475 10.3545 8.76475V4.05975C10.3545 3.20475 9.87453 2.45975 9.16953 2.08475C8.91953 1.95475 8.61953 2.12975 8.61953 2.40975ZM6.18953 8.47475H3.99953C3.79453 8.47475 3.62453 8.30475 3.62453 8.09975C3.62453 7.89475 3.79453 7.72475 3.99953 7.72475H6.18953C6.39453 7.72475 6.56453 7.89475 6.56453 8.09975C6.56453 8.30475 6.39453 8.47475 6.18953 8.47475ZM7.49953 6.47475H3.99953C3.79453 6.47475 3.62453 6.30475 3.62453 6.09975C3.62453 5.89475 3.79453 5.72475 3.99953 5.72475H7.49953C7.70453 5.72475 7.87453 5.89475 7.87453 6.09975C7.87453 6.30475 7.70453 6.47475 7.49953 6.47475Z" fill="#0A1E3C"/>
</svg>
