<svg width="12" height="15" viewBox="0 0 12 15" fill="none" xmlns="http://www.w3.org/2000/svg">
<path d="M11.3206 7.99137C11.3206 11.3209 8.98994 12.9857 6.21974 13.9513C6.07468 14.0005 5.91711 13.9981 5.77358 13.9446C2.99672 12.9857 0.666016 11.3209 0.666016 7.99137V3.32997C0.666016 3.15336 0.736174 2.98398 0.861058 2.8591C0.985941 2.73422 1.15532 2.66406 1.33193 2.66406C2.66376 2.66406 4.32854 1.86496 5.48723 0.852771C5.62831 0.73224 5.80778 0.666016 5.99333 0.666016C6.17888 0.666016 6.35835 0.73224 6.49943 0.852771C7.66478 1.87162 9.3229 2.66406 10.6547 2.66406C10.8313 2.66406 11.0007 2.73422 11.1256 2.8591C11.2505 2.98398 11.3206 3.15336 11.3206 3.32997V7.99137Z" stroke="#155DFC" stroke-width="1.33183" stroke-linecap="round" stroke-linejoin="round"/>
</svg>
